<?xml version="1.0" encoding="UTF-8" standalone="no"?>
<!DOCTYPE svg PUBLIC "-//W3C//DTD SVG 1.1//EN" "http://www.w3.org/Graphics/SVG/1.1/DTD/svg11.dtd">
<svg width="100%" height="100%" viewBox="0 0 250 245" version="1.1" xmlns="http://www.w3.org/2000/svg" xmlns:xlink="http://www.w3.org/1999/xlink" xml:space="preserve" xmlns:serif="http://www.serif.com/" style="fill-rule:evenodd;clip-rule:evenodd;stroke-linejoin:round;stroke-miterlimit:2;">
    <g transform="matrix(8.33333,0,0,8.33333,-10666.7,-6028.91)">
        <path d="M1291.62,742.582C1290.18,744.938 1288.76,747.275 1287.32,749.64C1289.88,751.259 1292.62,752.104 1295.66,751.956C1295.61,749.25 1295.56,746.587 1295.51,743.907C1294,744.083 1292.64,743.856 1291.62,742.582ZM1303.79,727.462C1303.69,727.373 1303.62,727.306 1303.54,727.242C1301.33,725.446 1298.79,724.508 1295.98,724.247C1295.81,724.231 1295.75,724.279 1295.73,724.452C1295.48,726.812 1295.22,729.169 1294.96,731.527C1294.92,731.871 1294.89,732.216 1294.85,732.593C1296.45,732.194 1297.67,732.845 1298.75,733.911C1300.43,731.758 1302.1,729.62 1303.79,727.462ZM1295.09,743.197C1298.4,743.197 1300.78,740.207 1300,737.017C1299.29,734.082 1296.05,732.39 1293.15,733.433C1291.26,734.113 1289.93,735.896 1289.87,737.85C1289.77,740.785 1292.12,743.197 1295.09,743.197ZM1294.62,752.852C1289.67,752.644 1285.24,750.356 1282.23,745.615C1278.89,740.354 1279.36,733.55 1283.35,728.768C1285.62,726.038 1288.55,724.362 1292.04,723.734C1296.15,722.995 1299.97,723.808 1303.42,726.148C1306.91,728.519 1309.04,731.821 1309.79,735.985C1310.73,741.286 1308.47,746.809 1304.11,749.96C1301.46,751.873 1298.5,752.817 1294.62,752.852Z" style="fill:rgb(35,31,32);fill-rule:nonzero;"/>
    </g>
</svg>
